<svg id="Group_1774" data-name="Group 1774" xmlns="http://www.w3.org/2000/svg" width="46.632" height="46.632" viewBox="0 0 46.632 46.632">
  <g id="Group_989" data-name="Group 989" transform="translate(3.704 15.62)">
    <path id="Path_1220" data-name="Path 1220" d="M720.992,82.7a1.168,1.168,0,0,0-.982-.655l-1.576-.055a4.9,4.9,0,0,1-2.9-1.137,3.229,3.229,0,0,1-.946-2.958,15.667,15.667,0,0,1,.923-2.654A6.26,6.26,0,0,0,716,72.377a4.041,4.041,0,0,0-.8-2.323,4.825,4.825,0,0,0-2.4-1.722,6.076,6.076,0,0,0-4.794.643,4.139,4.139,0,0,0-1.407,1.8,5.778,5.778,0,0,0-.4,2.567c.543.521.433.838.433.838l-.552,1.768a.182.182,0,0,0,.074.213l.315.176.046.025a.59.59,0,0,1,.26.391,12,12,0,0,1,.192,1.878c.237.647,1.039.465,1.039.465a2.486,2.486,0,0,1,.583-.143c.546-.072.531.626.531.626a3.648,3.648,0,0,1-.687,2.021c-1.043,1.351-3.655,1.908-3.655,1.908a1.932,1.932,0,0,0-1.272,1.063l-1.025,3.416-1.025-3.416a1.935,1.935,0,0,0-1.272-1.063s-2.611-.558-3.655-1.908a3.64,3.64,0,0,1-.686-2.021s-.016-.7.529-.626a1.876,1.876,0,0,1,.583.143s.8.182,1.039-.465a11.872,11.872,0,0,1,.193-1.878.589.589,0,0,1,.26-.391l.046-.025.315-.176a.185.185,0,0,0,.074-.213l-.552-1.768s-.109-.316.433-.838a5.778,5.778,0,0,0-.4-2.567,4.136,4.136,0,0,0-1.408-1.8,6.068,6.068,0,0,0-4.793-.643,4.825,4.825,0,0,0-2.4,1.722,4.038,4.038,0,0,0-.806,2.323,6.26,6.26,0,0,0,.484,2.861,15.094,15.094,0,0,1,.923,2.654,3.23,3.23,0,0,1-.945,2.958,4.9,4.9,0,0,1-2.9,1.137l-1.578.055a1.169,1.169,0,0,0-.984.655l-1.095,2.092a21.083,21.083,0,0,0,39.226-.017Z" transform="translate(-682.853 -68.082)" fill="#707070"/>
  </g>
  <path id="Path_1080" data-name="Path 1080" d="M1598.82,381.33a21.776,21.776,0,1,0,21.777-21.775A21.8,21.8,0,0,0,1598.82,381.33Zm-1.54,0a23.316,23.316,0,1,1,23.316,23.317A23.343,23.343,0,0,1,1597.28,381.33Z" transform="translate(-1597.28 -358.015)" fill="#707070"/>
</svg>
