<svg xmlns="http://www.w3.org/2000/svg" width="125.856" height="167" viewBox="0 0 125.856 167">
  <path id="Icon_Foundation" data-name="Icon Foundation" d="M935.756,39.225l-1.14-.76a.68.68,0,0,1-.212-.845l2.746-6.462s.549-1.141-1.352-3.337a21.369,21.369,0,0,1,2.492-9.545,15.732,15.732,0,0,1,6.04-6.251s9.039-4.688,18.5-.634c0,0,5.66,2.239,8.49,7.391a15.323,15.323,0,0,1,2.2,9.081s.3,3.8-2.915,10.6c0,0-4.35,7.729-4.519,9.672,0,0-2.154,6.969,2.492,11.489a18.942,18.942,0,0,0,10.644,5.364l6,.8a4.443,4.443,0,0,1,3.506,2.83L1017.1,138.06s1.943,3.928.126,6.336c0,0-14.234,17.782-30.959,25.976,0,0-16.768,9.883-46.8,5.026a62.3,62.3,0,0,1-27.032-11.911s-11.869-9.672-18.669-17.74c0,0-2.956-3.083-.887-8.067l28.468-68.551a7.3,7.3,0,0,1,5.237-3.506s10.179-1.141,14.656-5.829a13.657,13.657,0,0,0,3.379-7.349s.3-2.619-1.774-2.577a9.433,9.433,0,0,0-2.281.3s-3.126.38-3.8-2.154c0,0,.338-6.04-.042-7.138a2.1,2.1,0,0,0-.845-1.563Z" transform="translate(-892.15 -9.74)" fill="#f2f2f2"/>
</svg>
