<svg id="Icon_New_Year" data-name="Icon New Year" xmlns="http://www.w3.org/2000/svg" width="157.423" height="167" viewBox="0 0 157.423 167">
  <path id="Path_1609" data-name="Path 1609" d="M0,227.458a11,11,0,0,0,11.245,10.716H146.177a11,11,0,0,0,11.244-10.716V143.266H0Z" transform="translate(0 -71.174)" fill="#f2f2f2"/>
  <path id="Path_1612" data-name="Path 1612" d="M157.423,45.589V76.107H0V45.589A11.258,11.258,0,0,1,11.247,34.34H28.378V50.382a11.254,11.254,0,0,0,22.507,0V34.34H106.1V50.459a11.254,11.254,0,0,0,22.507,0V34.34h17.569a11.258,11.258,0,0,1,11.244,11.249" transform="translate(0 -16.188)" fill="#f2f2f2"/>
  <path id="Path_1614" data-name="Path 1614" d="M81.08,5.93V31.554a6.314,6.314,0,0,1-.44,2.332,5.481,5.481,0,0,1-5.026,3.594h-.346a5.613,5.613,0,0,1-5.381-4.885,6.647,6.647,0,0,1-.084-1.041V5.93A5.711,5.711,0,0,1,75.269,0h.346A5.711,5.711,0,0,1,81.08,5.93" transform="translate(-35.396)" fill="#f5f5f5"/>
  <path id="Path_1616" data-name="Path 1616" d="M81.08,5.93V31.554a6.314,6.314,0,0,1-.44,2.332,5.481,5.481,0,0,1-5.026,3.594h-.346a5.613,5.613,0,0,1-5.381-4.885,6.647,6.647,0,0,1-.084-1.041V5.93A5.711,5.711,0,0,1,75.269,0h.346A5.711,5.711,0,0,1,81.08,5.93" transform="translate(41.935)" fill="#f5f5f5"/>
</svg>
