<svg id="Icon_Mandala" data-name="Icon Mandala" xmlns="http://www.w3.org/2000/svg" width="167" height="167" viewBox="0 0 167 167">
  <circle id="Ellipse_200" data-name="Ellipse 200" cx="83.5" cy="83.5" r="83.5" transform="translate(0)" fill="#f2f2f2"/>
  <path id="Path_1593" data-name="Path 1593" d="M927.705,34.546l-.936-.64a.578.578,0,0,1-.17-.711l2.236-5.436s.452-.96-1.1-2.807a18.4,18.4,0,0,1,2.034-8.031,13.1,13.1,0,0,1,4.923-5.259s7.361-3.944,15.076-.533a15.2,15.2,0,0,1,6.925,6.218,13.242,13.242,0,0,1,1.791,7.64s.242,3.2-2.372,8.919c0,0-3.552,6.5-3.689,8.137,0,0-1.759,5.863,2.034,9.665a15.308,15.308,0,0,0,8.677,4.513l4.882.675a3.623,3.623,0,0,1,2.857,2.381l23.147,58.416s1.582,3.3.105,5.33c0,0-11.606,14.96-25.245,21.853,0,0-13.672,8.315-38.15,4.229a49.953,49.953,0,0,1-22.041-10.02s-9.669-8.137-15.221-14.924a6.489,6.489,0,0,1-.719-6.787l23.2-57.67a5.992,5.992,0,0,1,4.269-2.949s8.305-.959,11.953-4.9a11.554,11.554,0,0,0,2.752-6.182s.242-2.2-1.445-2.168a7.423,7.423,0,0,0-1.856.249s-2.55.32-3.1-1.812c0,0,.274-5.081-.041-6.005a1.782,1.782,0,0,0-.686-1.315Z" transform="translate(-861.156 1.865)" fill="#d6c6b0"/>
</svg>
