<svg id="Icon_Light_Bulb" data-name="Icon Light Bulb" xmlns="http://www.w3.org/2000/svg" xmlns:xlink="http://www.w3.org/1999/xlink" width="158.67" height="177.146" viewBox="0 0 158.67 177.146">
  <defs>
    <clipPath id="clip-path">
      <rect id="Rectangle_557" data-name="Rectangle 557" width="158.67" height="177.146" fill="none"/>
    </clipPath>
  </defs>
  <g id="Group_1772" data-name="Group 1772" clip-path="url(#clip-path)">
    <path id="Union_20" data-name="Union 20" d="M-6712.383,20262.229a15.938,15.938,0,0,1-10.512-13.359l-2.162-21.369c-1.3-12.871-6.326-25.809-14.931-38.463a44.25,44.25,0,0,1-7.679-24.98,44.545,44.545,0,0,1,14.814-33.137,44.123,44.123,0,0,1,34.714-11.057,44.715,44.715,0,0,1,39,38.016,44.837,44.837,0,0,1-1.312,18.5,44.261,44.261,0,0,1-7.267,14.508c-7.481,9.871-12.21,22.779-13.686,37.334l-2.09,20.646a15.925,15.925,0,0,1-10.507,13.365,27.46,27.46,0,0,1-9.195,1.613A27.4,27.4,0,0,1-6712.383,20262.229Zm-6.25-13.791a11.641,11.641,0,0,0,7.669,9.754,22.578,22.578,0,0,0,15.536,0,11.639,11.639,0,0,0,7.674-9.76l.376-3.729a31.328,31.328,0,0,1-15.8,4.521,31.431,31.431,0,0,1-15.836-4.525Zm-.931-9.164c10.878,7.561,21.888,7.572,32.736,0l1-9.9a35.37,35.37,0,0,1-17.352,4.775,35.46,35.46,0,0,1-17.388-4.781Zm-23.816-75.217a40,40,0,0,0,6.932,22.576c8.335,12.246,13.457,24.8,15.267,37.357,11.956,7.873,24.055,7.877,35.98,0,1.948-13.793,6.774-26.064,14.062-35.691a39.915,39.915,0,0,0,6.57-13.105c.073-.254.143-.506.21-.762-.067.256-.138.508-.21.762a39.915,39.915,0,0,1-6.57,13.105c-7.288,9.627-12.114,21.9-14.062,35.691-11.925,7.881-24.024,7.877-35.98,0-1.811-12.561-6.932-25.111-15.267-37.357a40,40,0,0,1-6.932-22.576Zm80.375-.018a42,42,0,0,0-.379-5.586A42.017,42.017,0,0,1-6663,20164.039Zm-.379-5.586a40.4,40.4,0,0,0-33.968-34.168A40.4,40.4,0,0,1-6663.384,20158.453Z" transform="translate(6782.483 -20086.695)" fill="#fff" stroke="rgba(0,0,0,0)" stroke-miterlimit="10" stroke-width="1"/>
    <path id="Path_1639" data-name="Path 1639" d="M306.02,0a4.062,4.062,0,0,0-4.052,4.051l-.007,12.806a4.062,4.062,0,0,0,4.047,4.052h0a4.062,4.062,0,0,0,4.052-4.051l.007-12.806A4.063,4.063,0,0,0,306.02,0" transform="translate(-226.681)" fill="#fff"/>
    <path id="Path_1640" data-name="Path 1640" d="M95.39,89.621a4.015,4.015,0,0,0-2.861-1.2h-.008a4.053,4.053,0,0,0-2.867,6.913L98.7,104.4a4.05,4.05,0,1,0,5.736-5.718Z" transform="translate(-66.416 -66.38)" fill="#fff"/>
    <path id="Path_1641" data-name="Path 1641" d="M486.128,480.358a4.013,4.013,0,0,0-2.86-1.2h-.008a4.053,4.053,0,0,0-2.868,6.913l9.046,9.056a4.049,4.049,0,1,0,5.735-5.718Z" transform="translate(-359.742 -359.706)" fill="#fff"/>
    <path id="Path_1642" data-name="Path 1642" d="M492.345,88.519h-.012a4.016,4.016,0,0,0-2.858,1.183L480.41,98.75a4.049,4.049,0,1,0,5.722,5.731l9.065-9.047a4.05,4.05,0,0,0-2.853-6.915" transform="translate(-359.752 -66.451)" fill="#fff"/>
    <path id="Path_1643" data-name="Path 1643" d="M101.514,479.159h-.006a4.027,4.027,0,0,0-2.861,1.184l-9.065,9.047a4.05,4.05,0,1,0,5.723,5.731l9.065-9.047a4.05,4.05,0,0,0-2.855-6.915" transform="translate(-66.357 -359.703)" fill="#fff"/>
    <path id="Path_1644" data-name="Path 1644" d="M16.862,301.892l-12.811-.014a4.052,4.052,0,0,0-.005,8.1L16.854,310h0a4.052,4.052,0,0,0,.005-8.1" transform="translate(0 -226.619)" fill="#fff"/>
    <path id="Path_1645" data-name="Path 1645" d="M569.448,302.027l-12.81-.01a4.052,4.052,0,0,0,0,8.1l12.807.01h0a4.052,4.052,0,0,0,.005-8.1" transform="translate(-414.825 -226.723)" fill="#fff"/>
  </g>
</svg>
