<svg xmlns="http://www.w3.org/2000/svg" width="167.032" height="125.88" viewBox="0 0 167.032 125.88">
  <path id="Icon_Sleep" data-name="Icon Sleep" d="M137.541,135.5l.76-1.141a.681.681,0,0,1,.845-.212l6.463,2.746s1.141.55,3.337-1.352a21.377,21.377,0,0,1,9.547,2.493,15.733,15.733,0,0,1,6.252,6.041s4.689,9.041.634,18.5c0,0-2.239,5.661-7.393,8.491a15.328,15.328,0,0,1-9.083,2.2s-3.8.3-10.6-2.915c0,0-7.731-4.351-9.674-4.52,0,0-6.97-2.154-11.491,2.492a18.948,18.948,0,0,0-5.365,10.645l-.8,6a4.443,4.443,0,0,1-2.83,3.507L38.688,216.866s-3.929,1.945-6.337.128c0,0-17.785-14.237-25.981-30.966,0,0-9.885-16.77-5.027-46.807a62.315,62.315,0,0,1,11.913-27.036S22.93,100.313,31,93.511c0,0,3.084-2.957,8.069-.887L107.632,121.1a7.3,7.3,0,0,1,3.506,5.237s1.141,10.181,5.83,14.66a13.674,13.674,0,0,0,7.35,3.38s2.619.295,2.577-1.776a9.424,9.424,0,0,0-.3-2.281s-.38-3.127,2.154-3.8c0,0,6.041.339,7.139-.042a2.1,2.1,0,0,0,1.563-.845Z" transform="translate(0 -91.889)" fill="#f2f2f2"/>
</svg>
